<svg height="54" width="76" xmlns="http://www.w3.org/2000/svg"><g fill-rule="nonzero" fill="none"><g transform="translate(0 1)"><path fill="#FFBE00" d="M48.497 39.09l-7.87 4.72-39.63-23 7.88-4.72 16.77 9.73 4.78 2.78 16.71 9.7z"/><path fill="#FFBE00" d="M48.007 39.09l-7.87 4.72-39.63-23 .24-.14 7.64-4.58 16.77 9.73 4.78 2.78 14.33 8.32 2.38 1.38z"/><path fill="#FFC900" d="M44.267 36.92l-7.63 4.58L.747 20.67l7.64-4.58 16.77 9.73 4.78 2.78z"/><path fill="#008AC7" d="M74.957 23.19v.02l-26.46 15.88-1.36-.79-16.71-9.7-4.78-2.78-16.77-9.73-.01-.02.01-.01 7.12-4.27L35.337.19l36.21 21.02h.01z"/><path fill="#00B7F6" d="M71.547 21.21l-26.45 15.88-1.36-.79-16.71-9.7-4.78-2.78-13.37-7.76 7.12-4.27L35.337.19z"/><path fill="#388C41" d="M47.137 38.29v.01l-3.96-2.3-12.75-7.4-20.72-12.03-.83-.48 7.16-4.3 21.68-.1 2.27 13.15.01.15 4.18-.25z"/><path fill="#5AB862" d="M43.865 36.438l-12.75-7.401L9.288 16.365l4.379-2.375 21.68-.1 1.744 10.855 4.18-.25z"/><ellipse cx="58.208" cy="23.585" fill="#FFEB49" rx="4.954" ry="2.915" transform="rotate(-3.297 58.208 23.585)"/><path fill="#FFA700" d="M40.627 43.81v8l-39.63-23v-8z"/><path fill="#FFBE00" d="M48.507 47.08l-7.88 4.73v-8l7.87-4.72v7.97z"/><path fill="#354AA3" d="M74.997 23.19v8l-3 1.8-23.49 14.09-.01-.02v-7.97l26.46-15.88z"/><path fill="#5068C1" d="M71.997 25.19v7.8l-23.49 14.09-.01-.02v-7.77z"/></g><g fill="#000"><path d="M.062 30.132a.96.96 0 00.081.167.96.96 0 00.107.159c.046.05.096.094.151.134.03.03.06.057.094.083l39.63 23c.024.014.05.02.076.031a.95.95 0 00.082.034c.22.093.467.093.687 0a.96.96 0 00.088-.038c.027-.013.057-.02.083-.035l34.37-20.62c.03-.024.06-.05.087-.078a.964.964 0 00.15-.137c.078-.099.14-.209.185-.327a.966.966 0 00.04-.2.939.939 0 00.024-.115L76 24.186v-.006a.991.991 0 00-.104-.42.996.996 0 00-.189-.28l-.001-.001a.999.999 0 00-.204-.158L35.88.321a.998.998 0 00-1.017.008L.485 20.956a.987.987 0 00-.174.138c-.006.006-.015.01-.021.017a.991.991 0 00-.19.281c-.012.025-.02.05-.03.075a.984.984 0 00-.068.336l-.002.01-.003 7.997c.005.04.013.08.024.118.006.07.02.137.04.204zm17.097-16.848l20.134-.094 2.127 12.33-7.179.419a.5.5 0 00.059.997l11.484-.67 2.62 12.025-36.048-20.925 6.803-4.082zM74 25.954l-.002 5.67L49.001 46.62v-5.667l24.998-15zM48.001 47.218l-6.375 3.825-.003-5.664 6.378-3.827v5.666zm-8.378-1.83l.003 5.684-37.629-21.84.002-5.683 37.624 21.84zM35.386 2.349L73.032 24.2 48.003 39.22l-.427-.248-2.906-13.335a.495.495 0 00-.518-.393l-3.727.218-2.218-12.857a.5.5 0 00-.493-.415h-.002l-18.873.087 16.547-9.928zM9.376 17.954l37.647 21.853-6.409 3.845L2.968 21.8l6.408-3.845z"/><path d="M54.376 27.166a7.125 7.125 0 003.52.849 7.891 7.891 0 003.985-1.019 3.137 3.137 0 001.776-2.614 2.839 2.839 0 00-1.617-2.38 8.039 8.039 0 00-7.505.17 3.135 3.135 0 00-1.775 2.615 2.838 2.838 0 001.616 2.379zm.673-4.136a7.053 7.053 0 016.489-.162 1.895 1.895 0 011.119 1.522 2.235 2.235 0 01-1.29 1.749 7.05 7.05 0 01-6.49.162 1.895 1.895 0 01-1.117-1.52 2.23 2.23 0 011.289-1.75z"/></g></g></svg>